<svg xmlns="http://www.w3.org/2000/svg" xmlns:xlink="http://www.w3.org/1999/xlink" width="1440" height="961" viewBox="0 0 1440 961">
    <defs>
        <path id="a" d="M0 0h1440v973H0z"/>
        <linearGradient id="c" x1="100%" y1="0%" y2="100%">
            <stop offset="0%" stop-color="#F7F7F7"/>
            <stop offset="98.58%" stop-color="#F2F2F2"/>
            <stop offset="100%" stop-color="#F1F1F1"/>
        </linearGradient>
        <linearGradient id="d" x1="100%" y1="0%" y2="100%">
            <stop offset="0%" stop-color="#F7F7F7"/>
            <stop offset="97.189%" stop-color="#EAEAEA"/>
            <stop offset="100%" stop-color="#F1F1F1"/>
        </linearGradient>
    </defs>
    <g fill="none" fill-rule="evenodd" opacity=".74">
        <mask id="b" fill="#fff">
            <use xlink:href="#a"/>
        </mask>
        <g fill="url(#c)" mask="url(#b)">
            <path d="M870.181-1585.15h773.323c9.438-.006 18.492 3.862 25.163 10.752 6.672 6.89 10.414 16.236 10.4 25.976 0 273.56-214.842 495.384-479.968 495.384H864.964c-391.803 0-721.527 318.325-730.752 722.591-9.527 416.44 315.912 758.331 717.369 758.331h347.569c265.1 0 479.968 221.772 479.993 495.358.013 9.74-3.728 19.086-10.4 25.976-6.672 6.89-15.725 10.758-25.163 10.752H851.606c-686.317 0-1243.511-581.611-1232.976-1292.315C-371.086-1030.59 193.543-1585.15 870.181-1585.15z"/>
        </g>
        <g fill="url(#d)" mask="url(#b)">
            <path d="M124.806-332.45c10.387-698.218 575.206-1252.777 1251.935-1252.777h266.93c9.45 0 18.508 3.892 25.163 10.812 6.656 6.92 10.358 16.297 10.284 26.045.026 131.336-50.525 257.3-140.53 350.173-90.005 92.873-212.087 145.043-339.38 145.029H864.814c-391.849 0-721.604 318.56-730.957 722.8-9.328 416.36 316.141 758.408 717.595 758.408h347.73c127.3-.034 249.395 52.124 339.412 144.994 90.016 92.87 140.576 218.84 140.549 350.182.08 9.75-3.62 19.13-10.276 26.053-6.657 6.922-15.72 10.812-25.17 10.805h-285.712c-686.385 0-1243.59-581.715-1233.179-1292.523z"/>
        </g>
    </g>
</svg>
