<?xml version="1.0" encoding="UTF-8" standalone="no"?>
<svg xmlns:xlink="http://www.w3.org/1999/xlink" xmlns="http://www.w3.org/2000/svg" version="1.1" width="3385" height="1100" id="svg2">
<defs>
<linearGradient xlink:href="#linearGradient01link" id="linearGradient01" gradientUnits="userSpaceOnUse" x1="0" y1="200" x2="340" y2="460"/>
<linearGradient id="linearGradient01link">
      <stop offset="0" id="stop00" style="stop-color:#5BCEAB;stop-opacity:1;"/>
      <stop offset="1" id="stop01" style="stop-color:#5BCEAB;stop-opacity:0;"/>
    </linearGradient>
<linearGradient xlink:href="#linearGradient01link" id="linearGradient4486" gradientUnits="userSpaceOnUse" x1="80" y1="120" x2="420" y2="380"/>
<linearGradient xlink:href="#linearGradient01link" id="linearGradient4252" gradientUnits="userSpaceOnUse" x1="280" y1="40" x2="532" y2="394"/>
</defs>
<g id="paou">
<path d="M -4 519.67 C -4 266 114.07 173 311 173 c 54.84 0 112.33 14.49 158.52 26.58 l -31.3 229.55 -129.68 -8.6 c -5.02 -0.33 -23.55 -4.53 -23.55 99.14 0 72.46 6.3 100.62 23.55 99.47 l 129.95 -8.62 30.02 232.91 c -50.68 9.41 -103.68 18.58 -159.51 18.58 -183.14 0 -313 -72.93 -313 -342.33 z  " id="paou-00C100" transform="translate(98,50)" style=" fill:#DAE5E4;" />
<path d="m 16 520 c 0 -100.4 1.49 -200.73 4 -301 l 0.94 -37.2 37.17 -1.76 c 31.97 -1.51 55.41 -2.29 89.26 -2.29 34.36 0 70.85 1.13 103.31 2.25 16.48 0 32.02 10.13 39.78 20.74 l 0.47 -18.94 37.17 -1.76 c 31.97 -1.51 55.41 -2.29 89.26 -2.29 34.36 0 70.85 1.13 103.31 2.25 26.53 0 49.3 22.58 49.3 49.57 1.98 93.02 4.01 190.18 4.01 290.43 0 100.4 -1.51 200.73 -4.01 301 l -0.93 37.2 -37.17 1.76 c -31.97 1.51 -55.41 2.29 -89.26 2.29 -34.37 0 -70.85 -1.13 -103.31 -2.25 -16.48 0 -32.02 -10.13 -39.78 -20.74 l -0.47 18.94 -37.17 1.76 c -31.97 1.51 -55.41 2.29 -89.26 2.29 -34.55 0 -70.48 -1.11 -103.6 -2.25 -28.13 -0.9 -49.02 -23.06 -49.02 -49.57 -1.98 -93.02 -4 -190.18 -4 -290.43 z  " id="paou-00H101" transform="translate(513,50)" style=" fill:#DAE5E4;" />
<path d="m -13.99 768.33 c 32.07 -196.35 76 -393.93 114.84 -586.83 55.25 -2.59 112.91 -3.75 170.53 -3.75 48.51 0 96.87 0.66 143.41 2.25 24.6 0 46.18 18.74 50.4 42.65 37.49 189.72 84.61 395.4 114.26 591.37 l 6.63 43.83 -44.28 2.11 c -31.71 1.51 -55.03 2.29 -88.88 2.29 -33.98 0 -64.96 -0.07 -100.56 -2.33 -22.34 -1.42 -43.54 -17.22 -48.47 -42.17 -4.37 -22.11 -8.73 -45.75 -12.6 -67.75 h -24.88 c -4.27 26.22 -8.97 52.35 -13.99 77.36 l -6.27 31.14 -31.18 1.46 c -31.96 1.5 -50.78 2.29 -84.64 2.29 -34.36 0 -70.68 -1.13 -102.92 -2.25 -27.75 0 -47.68 -24.52 -47.68 -48.87 0 -8.81 4 -28.84 6.28 -42.8 z  " id="paou-00A102" transform="translate(1063,50)" style=" fill:#DAE5E4;" />
<path d="m 16 520 c 0 -112.74 2.14 -226.27 4.94 -338.2 36.4 -2 77.24 -4.05 121.43 -4.05 34.46 0 58.51 0.7 88.75 2.31 30.52 1.62 42.72 27.54 45.36 33.49 l 89.02 181.6 91.27 -186.2 2.29 -3.03 c 1.74 -2.41 14.32 -23.37 41.04 -25.48 19.82 -1.56 44.54 -2.68 73.27 -2.68 34.81 0 66.1 1.13 94.29 2.31 24.96 1.04 48.33 21.38 48.33 49.52 1.98 93.02 4 190.18 4 290.43 0 112.68 -2.14 226.15 -4.94 338.02 -35.43 2.16 -71.12 4.23 -116.44 4.23 -24.63 0 -60.81 -1.13 -93.31 -2.25 -26.54 0 -49.31 -22.58 -49.31 -49.57 -0.73 -34.25 -1.81 -71.74 -2.79 -107.06 l -50.19 102.38 -38.38 6.98 -36.86 -7.37 -39.03 -79.63 1.77 132.41 c -37.86 2.02 -78.24 4.12 -122.89 4.12 -24.76 0 -65.31 -1.11 -98.57 -2.25 -28.18 -0.91 -49.05 -23.06 -49.05 -49.57 -1.98 -93.02 -4 -190.18 -4 -290.43 z  " id="paou-00M103" transform="translate(1583,50)" style=" fill:#DAE5E4;" />
<path d="m 18 520 c 0 -112.21 2 -214.42 2 -324.3 73.6 -11.37 166.21 -22.7 235 -22.7 174.1 0 311 34.81 311 276.67 0 197.9 -112.39 263.19 -267.23 271.34 0.85 48.04 1.19 89.88 1.43 137.31 -40.7 1.79 -85.37 3.69 -128.19 3.69 -34.61 0 -69.25 -0.96 -103.06 -2.01 -25.11 -0.55 -48.94 -20.88 -48.94 -49.99 0 -93.46 -2 -189.47 -2 -290 z  " id="paou-00P104" transform="translate(2279,50)" style=" fill:#DAE5E4;" />
<path d="m -1.19 849.58 36.42 -268.76 45.26 14.22 c 39.24 12.33 77.29 21.81 107.11 27.06 -76.33 -24.58 -182.61 -78.26 -182.61 -235.43 0 -195.31 120.03 -213.67 276 -213.67 61.89 0 133.12 9.08 201.82 22.77 l 36.86 7.35 -34.73 256.55 -48.87 -22 c -9.25 -4.16 -21.97 -9.11 -32.34 -12.67 68.31 32.89 136.26 91.93 136.26 203.66 0 190.23 -144.47 236.33 -285 236.33 -69.49 0 -143.77 -3.89 -215.08 -11.21 z  " id="paou-00S105" transform="translate(2795,50)" style=" fill:#DAE5E4;" />
</g>
<g id="paba">
<path d="M 26 499.67 C 26 264.52 132 193 301 193 c 41.15 0 73.74 7.3 114 17 l -21.38 156.75 -92.43 -6.13 c -36.47 -2.42 -66.2 20.25 -66.2 139.05 0 119.15 25.78 142.06 66.2 139.38 l 92.43 -6.13 20.38 158.08 c -40.67 7.55 -73.65 11 -115 11 -168 0 -273 -52.31 -273 -302.33 z  " id="paba-00C100" transform="translate(98,50)" style=" fill:#0693B9;" />
<path d="m 46 500 c 0 -100 1.5 -200 4 -300 31.75 -1.5 54.13 -2.25 87.38 -2.25 33.96 0 68.67 1.08 102.62 2.25 5.52 0 10 4.48 10 10 1.46 68.67 1.85 138.41 1.96 210 h 66 c 0 -74.25 0.21 -146.67 2.04 -220 31.75 -1.5 54.13 -2.25 87.38 -2.25 33.96 0 68.67 1.08 102.62 2.25 5.52 0 10 4.48 10 10 2 94 4 190 4 290 0 100 -1.5 200 -4 300 -31.75 1.5 -54.13 2.25 -87.38 2.25 -33.96 0 -68.67 -1.08 -102.62 -2.25 -5.52 0 -10 -4.48 -10 -10 -1.39 -65.47 -1.81 -131.91 -1.94 -200 h -66.02 c -0.01 70 -0.29 140 -2.04 210 -31.75 1.5 -54.13 2.25 -87.38 2.25 -33.96 0 -68.67 -1.08 -102.62 -2.25 -5.52 0 -10 -4.48 -10 -10 -2 -94 -4 -190 -4 -290 z  " id="paba-00H101" transform="translate(513,50)" style=" fill:#0693B9;" />
<path d="m 9.71 791.75 c 0 -2.32 3.2 -21.18 4.84 -31.29 C 44.17 577.61 86.81 384.22 123.9 200 c 44.62 -2.09 90.67 -2.25 137.48 -2.25 48.61 0 95.15 0.62 142.72 2.25 5.52 0 10.79 4.48 11.76 10 37.83 191.47 84.66 395.83 114.04 590 -31.49 1.5 -53.73 2.25 -86.98 2.25 -33.96 0 -63.86 -0.08 -98.02 -2.25 -5.51 -0.35 -10.67 -4.5 -11.76 -10 -6.52 -32.97 -12.51 -66.35 -18.11 -100 h -92.87 c -5.51 36.96 -11.75 73.68 -19.06 110 -32.01 1.5 -49.52 2.25 -82.77 2.25 -33.96 0 -68.49 -1.08 -102.23 -2.25 -4.92 0 -8.39 -3.56 -8.39 -8.25 z M 239.08 560 h 56.05 C 284.47 485.31 274.73 410.07 264.33 335.66 255.22 409.72 247.77 484.95 239.08 560 z  " id="paba-00A102" transform="translate(1063,50)" style=" fill:#0693B9;" />
<path d="m 46 500 c 0 -100 1.5 -200 4 -300 31.75 -1.5 49.13 -2.25 82.38 -2.25 33.96 0 56.87 0.67 86.62 2.25 5.51 0.29 9.08 5.08 11 10 L 355.5 466.02 481 210 c 3.25 -4.3 7.38 -9.3 12.25 -9.69 18.71 -1.48 42.45 -2.56 70.13 -2.56 33.96 0 64.62 1.08 92.62 2.25 5.52 0.23 10 4.48 10 10 2 94 4 190 4 290 0 100 -1.5 200 -4 300 -28.75 1.5 -44.13 2.25 -77.38 2.25 -23.96 0 -58.67 -1.08 -92.62 -2.25 -5.52 0 -10 -4.48 -10 -10 -1.88 -88.55 -5.54 -178.87 -5.96 -272.64 l -114.04 232.64 -11 2 -10 -2 -108.62 -221.59 3.62 271.59 c -31.75 1.5 -49.13 2.25 -82.38 2.25 -23.96 0 -63.67 -1.08 -97.62 -2.25 -5.52 0 -10 -4.48 -10 -10 -2 -94 -4 -190 -4 -290 z  " id="paba-00M103" transform="translate(1583,50)" style=" fill:#0693B9;" />
<path d="m 48 500 c 0 -100 2 -192.03 2 -290 66.84 -10.33 139 -17 195 -17 169 0 271 21.52 271 236.67 0 189.63 -100.58 232.16 -267.96 232.33 0.87 46 1.73 92 1.96 138 -29.17 1.25 -59 2 -88 2 -34 0 -67.85 -0.93 -102 -2 -5.21 -0.11 -10 -4.48 -10 -10 0 -94.03 -2 -190 -2 -290 z m 198 -1.95 h 15.81 c 27.18 0 51.2 -6.24 51.2 -65.39 0 -62.14 -4.42 -69.04 -44.2 -69.04 H 246 v 134.43 z  " id="paba-00P104" transform="translate(2279,50)" style=" fill:#0693B9;" />
<path d="M 34 794 58.5 613.2 c 70 22 132 34.85 177.31 34.85 37.38 0 53.2 -19.56 53.2 -35.39 0 -20.13 -28.82 -28.28 -67.05 -39.1 -75.26 -21.31 -186.96 -52.99 -186.96 -206.89 0 -162.15 100 -173.67 237 -173.67 58 0 126.16 8.67 193 22 l -22.5 166.2 c -46.77 -21.05 -118 -40.58 -180.31 -40.58 -30.26 0 -50.2 9.54 -50.2 28.04 0 17.4 30.76 26.68 71.81 38.99 82.37 24.71 206.2 61.65 206.2 201.02 0 159.27 -110 196.33 -245 196.33 -68 0 -141.06 -3.83 -211 -11 z  " id="paba-00S105" transform="translate(2795,50)" style=" fill:#0693B9;" />
</g>
<g id="pain">
<path d="M 46 499.67 C 46 273.68 140.84 213 301 213 c 32.78 0 60.52 5.07 91.73 12.27 l -16.4 120.28 -73.82 -4.9 c -54.22 -3.6 -87.52 39.73 -87.52 159.01 0 99.31 23.73 163.57 87.52 159.34 l 73.68 -4.89 15.53 120.46 c -32.47 5.23 -58.8 7.42 -92.72 7.42 -160.59 0 -253 -41.88 -253 -282.33 z  " id="pain-00C100" transform="translate(98,50)" style="fill:url(#linearGradient01);" />
<path d="m 66 500 c 0 -93.37 1.35 -188.55 3.54 -280.85 24.43 -1 41.39 -1.4 67.84 -1.4 30.5 0 62.12 0.9 92.82 1.93 1.44 72.89 1.68 145.32 1.8 220.32 h 105.97 c 0 -74.16 0.07 -149.18 1.6 -220.85 24.37 -1 41.39 -1.4 67.81 -1.4 30.5 0 62.11 0.9 92.83 1.93 1.95 92 3.8 183.7 3.8 280.32 0 93.37 -1.35 188.55 -3.54 280.85 -24.43 1 -41.39 1.4 -67.84 1.4 -30.5 0 -62.12 -0.9 -92.82 -1.93 -1.38 -69.73 -1.65 -138.79 -1.79 -210.32 h -105.98 c -0.01 70.28 -0.14 142.06 -1.6 210.85 -24.37 1 -41.39 1.4 -67.81 1.4 -30.5 0 -62.11 -0.9 -92.83 -1.93 -1.95 -92 -3.8 -183.7 -3.8 -280.32 z  " id="pain-00H101" transform="translate(513,50)" style="fill:url(#linearGradient4486);" />
<path d="m 31.6 780.45 c 28.99 -183.12 71.54 -377.03 108.8 -561.12 41.11 -1.5 79.3 -1.58 120.98 -1.58 46.39 0 90.84 0.58 136.04 2.04 36.55 184.26 80.45 377.84 109.31 561.22 -20.95 0.84 -39.14 1.24 -63.81 1.24 -31.99 0 -60.79 -0.14 -91.29 -1.88 -6.07 -31.05 -11.61 -62.1 -16.86 -93.66 l -2.78 -16.71 h -127.05 l -2.54 17.05 c -4.67 31.27 -10.19 64.18 -15.87 93.69 -23.91 1.06 -38.83 1.51 -66.18 1.51 -29.01 0 -60.95 -0.88 -88.73 -1.8 z M 318.18 580 c -11.69 -81.97 -22.57 -164.94 -34.05 -247.1 -0.87 -6.21 -1.63 -10.61 -2.88 -17.36 -5.25 -0.38 -11.26 -0.59 -17.27 -0.59 -6.02 0 -12.04 0.22 -17.29 0.72 -0.5 4.5 -1.45 11.4 -2.21 17.55 -10.06 81.75 -18.35 164.7 -27.85 246.78 h 101.56 z  " id="pain-00A102" transform="translate(1063,50)" style="fill:url(#linearGradient01);" />
<path d="M 355.5 511.46 498.38 219.98 c 18.48 -1.35 39.49 -2.23 64.99 -2.23 29.78 0 58.86 0.91 82.83 1.87 1.96 92.14 3.8 183.72 3.8 280.38 0 93.44 -1.35 188.4 -3.54 280.96 -19.57 0.92 -32.5 1.29 -57.83 1.29 -21.2 0 -52.46 -0.91 -82.83 -1.93 -1.97 -86.92 -5.35 -172.81 -5.75 -263.05 l -0.38 -85.37 -144.16 294.08 v -214.52 z  " id="pain-01M103" transform="translate(1583,50)" style="fill:url(#linearGradient4252);" />
<path d="M 355.5 725.98 215.2 439.76 l 4.55 341.15 c -22.09 0.95 -36.29 1.34 -62.12 1.34 -21.07 0 -57.54 -0.93 -87.83 -1.93 -1.95 -91.99 -3.8 -183.7 -3.8 -280.32 0 -93.38 1.35 -188.51 3.54 -280.88 21.96 -0.96 36.78 -1.37 62.84 -1.37 31.5 0 53.93 0.62 80.1 1.94 l 143.03 291.77 v 214.52 z  " id="pain-00M103" transform="translate(1583,50)" style="fill:url(#linearGradient01);" />
<path d="m 68 500 c 0 -93.86 1.76 -180.97 1.98 -272.75 61.76 -8.83 125.05 -14.25 175.02 -14.25 166.61 0 251 14.67 251 216.67 0 186.59 -93.89 212.17 -268.34 212.35 0.87 43.95 1.81 93.32 2.21 138.75 -23.77 0.82 -45.34 1.23 -67.87 1.23 -30.44 0 -61.81 -0.79 -92.02 -1.7 -0.13 -91.32 -1.98 -183.96 -1.98 -280.3 z m 158 18.01 35.81 0.04 c 34.37 0 71.2 -16.69 71.2 -85.39 0 -57.73 -6.36 -89.1 -64.2 -89.04 L 226 343.66 v 174.35 z  " id="pain-00P104" transform="translate(2279,50)" style="fill:url(#linearGradient01);" />
<path d="M 56.61 776.11 75.16 639.17 c 62.84 18.39 116.79 28.88 160.65 28.88 43.96 0 73.2 -24.97 73.2 -55.39 0 -41.59 -50.23 -49.46 -81.6 -58.34 -75.98 -21.51 -172.41 -47.94 -172.41 -187.65 0 -145.77 79.35 -153.67 217 -153.67 50.8 0 110.91 7.03 170.64 18.06 l -16.49 121.8 c -47.2 -17.75 -107.89 -32.25 -163.97 -32.25 -30.45 0 -70.2 9.78 -70.2 48.04 0 40.17 52.63 48.12 86.06 58.14 84.62 25.38 191.95 58.56 191.95 181.86 0 143.92 -92.68 176.33 -225 176.33 -60.42 0 -126.98 -3.23 -188.39 -8.89 z  " id="pain-00S105" transform="translate(2795,50)" style="fill:url(#linearGradient01);" />
</g>
</svg>